<svg width="117" height="117" viewBox="0 0 117 117" fill="none" xmlns="http://www.w3.org/2000/svg">
<path d="M38.324 19.7015L38.2882 30.5045L55.6692 26L46.1272 19.5L38.324 19.7015ZM108.062 76.3165C108.062 72.618 110.536 69.5857 113.75 69.043V31.1512C100.75 28.0247 3.25 54.522 3.25 54.522V66.014C8.333 66.9695 12.1875 71.4155 12.1875 76.778C12.1875 82.1405 8.333 86.593 3.25 87.5485V112.625L113.75 91.559V83.5932C110.536 83.0472 108.062 80.0117 108.062 76.3165Z" fill="#FFAC33"/>
<path d="M50.6513 7.2865L38.1615 19.7763C40.5568 20.3353 42.25 21.697 42.25 23.2928C42.25 25.389 39.338 27.0855 35.75 27.0855C34.2095 27.0855 32.8153 26.7605 31.7038 26.2405L3.25 54.691C46.0428 45.2303 74.8865 37.5115 114.075 31.2065C98.2735 10.14 61.1878 7.2865 50.6513 7.2865Z" fill="#FFD983"/>
<path d="M65 16.7927C65 18.889 62.088 20.5855 58.5 20.5855C54.912 20.5855 52 18.889 52 16.7927C52 14.6965 54.912 13 58.5 13C62.088 13 65 14.6965 65 16.7927ZM48.984 37.5765C48.984 40.755 44.5673 43.3323 39.117 43.3323C33.6668 43.3323 29.25 40.755 29.25 37.5765C29.25 34.4013 33.6668 31.8208 39.117 31.8208C44.564 31.824 48.984 34.4013 48.984 37.5765ZM94.25 27.144C94.25 30.6995 89.3068 33.5823 83.213 33.5823C77.1193 33.5823 72.176 30.6995 72.176 27.144C72.176 23.5885 77.1193 20.7057 83.213 20.7057C89.3068 20.7057 94.25 23.5885 94.25 27.144Z" fill="#FFAC33"/>
<path d="M109.281 50.765C109.281 55.094 106.099 58.6007 102.17 58.6007C98.2409 58.6007 95.0592 55.094 95.0592 50.765C95.0592 46.436 98.2409 42.9292 102.17 42.9292C106.099 42.9292 109.281 46.436 109.281 50.765ZM36.9687 66.5665C36.9687 70.6452 33.9689 73.9505 30.2672 73.9505C26.5654 73.9505 23.5657 70.642 23.5657 66.5665C23.5657 62.4845 26.5654 59.1792 30.2672 59.1792C33.9689 59.1792 36.9687 62.4877 36.9687 66.5665ZM92.7257 82.7515C91.0909 84.708 88.3219 85.0915 86.5409 83.603C84.7632 82.1177 84.6494 79.3227 86.2907 77.3662C87.9319 75.4 90.6977 75.0197 92.4754 76.505C94.2564 77.9935 94.3669 80.7852 92.7257 82.7515ZM61.2527 58.773C59.0524 61.4087 55.3214 61.9255 52.9262 59.9202C50.5342 57.9215 50.3814 54.158 52.5882 51.5255C54.7982 48.88 58.5227 48.3697 60.9147 50.3685C63.3099 52.3705 63.4627 56.1307 61.2527 58.773ZM64.0899 91.3218C60.1899 96.5347 53.1894 97.89 48.4639 94.354C43.7352 90.818 43.0592 83.72 46.9592 78.5102C50.8592 73.294 57.8597 71.9387 62.5852 75.4715C67.3139 79.0075 67.9899 86.1055 64.0899 91.3218Z" fill="#F4900C"/>
</svg>
